<svg xmlns="http://www.w3.org/2000/svg" xmlns:xlink="http://www.w3.org/1999/xlink"><symbol id="arrow__right" viewBox="0 0 24 12"><g fill="currentColor">
<line y1="6" x2="18" y2="6" stroke="currentColor" stroke-width="2"/>
<path d="M24 6L17.25 11.1962L17.25 0.803848L24 6Z" fill="currentColor"/>
</g></symbol><symbol id="bullhorn" viewBox="0 0 60 61"><g fill="none">
<path d="M35 53H33V43.2C33 42.6477 32.5523 42.2 32 42.2C31.4477 42.2 31 42.6477 31 43.2V53H5V33H13.32C13.8723 33 14.32 32.5523 14.32 32C14.32 31.4477 13.8723 31 13.32 31H4C3.44772 31 3 31.4477 3 32V53H1C0.447715 53 0 53.4477 0 54V56C0 58.7614 2.23858 61 5 61H31C33.7614 61 36 58.7614 36 56V54C36 53.4477 35.5523 53 35 53ZM34 56C34 57.6569 32.6569 59 31 59H29V58C29 57.4477 28.5523 57 28 57C27.4477 57 27 57.4477 27 58V59H9V58C9 57.4477 8.55229 57 8 57C7.44772 57 7 57.4477 7 58V59H5C3.34315 59 2 57.6569 2 56V55H34V56Z" fill="#868686"/>
<path d="M52 7H54C54.5523 7 55 6.55228 55 6C55 5.44772 54.5523 5 54 5H52C50.3431 5 49 6.34315 49 8V9H48C47.4477 9 47 9.44772 47 10C47 10.5523 47.4477 11 48 11H49V14C49 14.5523 49.4477 15 50 15C50.5523 15 51 14.5523 51 14V11H52C52.5523 11 53 10.5523 53 10C53 9.44772 52.5523 9 52 9H51V8C51 7.44772 51.4477 7 52 7Z" fill="#868686"/>
<path d="M57 1H45C43.3431 1 42 2.34315 42 4V6C42 6.55228 42.4477 7 43 7C43.5523 7 44 6.55228 44 6V4C44 3.44772 44.4477 3 45 3H57C57.5523 3 58 3.44772 58 4V16C58 16.5523 57.5523 17 57 17H45C44.4477 17 44 16.5523 44 16V10C44 9.44771 43.5523 9 43 9C42.4477 9 42 9.44771 42 10V16C42 17.6569 43.3431 19 45 19H57C58.6569 19 60 17.6569 60 16V4C60 2.34315 58.6569 1 57 1Z" fill="#868686"/>
<path d="M47 41C47 43.2091 48.7909 45 51 45C53.2091 45 55 43.2091 55 41C55 38.7909 53.2091 37 51 37C48.7909 37 47 38.7909 47 41ZM53 41C53 42.1046 52.1046 43 51 43C49.8954 43 49 42.1046 49 41C49 39.8954 49.8954 39 51 39C52.1046 39 53 39.8954 53 41Z" fill="#868686"/>
<path d="M57 32H45C43.3431 32 42 33.3431 42 35V47C42 48.6569 43.3431 50 45 50H57C58.6569 50 60 48.6569 60 47V45C60 44.4477 59.5523 44 59 44C58.4477 44 58 44.4477 58 45V47C58 47.5523 57.5523 48 57 48H45C44.4477 48 44 47.5523 44 47V35C44 34.4477 44.4477 34 45 34H57C57.5523 34 58 34.4477 58 35V41C58 41.5523 58.4477 42 59 42C59.5523 42 60 41.5523 60 41V35C60 33.3431 58.6569 32 57 32Z" fill="#868686"/>
<path d="M22.47 12.8499C22.6291 12.9485 22.8128 13.0005 23 12.9999C23.1565 12.999 23.3107 12.9613 23.45 12.8899L29.45 9.8899C29.784 9.71881 29.994 9.37515 29.994 8.9999C29.994 8.62466 29.784 8.281 29.45 8.1099L23.45 5.1099C23.1405 4.95394 22.7723 4.96936 22.4769 5.15067C22.1815 5.33198 22.0011 5.65331 22 5.9999V11.9999C21.9993 12.3454 22.177 12.6668 22.47 12.8499ZM24 7.6199L26.76 8.9999L24 10.3799V7.6199Z" fill="#868686"/>
<path d="M25 18C29.9706 18 34 13.9706 34 9C34 4.02944 29.9706 0 25 0C20.0294 0 16 4.02944 16 9C16 13.9706 20.0294 18 25 18ZM25 2C28.866 2 32 5.13401 32 9C32 12.866 28.866 16 25 16C21.134 16 18 12.866 18 9C18 5.13401 21.134 2 25 2Z" fill="#868686"/>
<path d="M35 22.0001C35.3148 22.0001 35.6111 21.8519 35.8 21.6001L38.8 17.6001C39.1314 17.1582 39.0418 16.5314 38.6 16.2001C38.1582 15.8687 37.5314 15.9582 37.2 16.4001L34.2 20.4001C33.8686 20.8419 33.9582 21.4687 34.4 21.8001C34.5731 21.9299 34.7836 22.0001 35 22.0001Z" fill="#868686"/>
<path d="M37.2 25.6001C37.3889 25.8519 37.6852 26.0001 38 26.0001C38.2164 26.0001 38.4269 25.9299 38.6 25.8001L42.6 22.8001C43.0418 22.4687 43.1314 21.8419 42.8 21.4001C42.4686 20.9582 41.8418 20.8687 41.4 21.2001L37.4 24.2001C36.9582 24.5314 36.8686 25.1582 37.2 25.6001Z" fill="#868686"/>
<path d="M47 27.8001C46.952 27.5322 46.7968 27.2955 46.5704 27.1445C46.3439 26.9936 46.0657 26.9414 45.8 27.0001L40.8 28.0001C40.2477 28.0553 39.8448 28.5478 39.9 29.1001C39.9552 29.6524 40.4477 30.0553 41 30.0001H41.2L46.2 29.0001C46.4679 28.9521 46.7046 28.7969 46.8556 28.5705C47.0065 28.3441 47.0587 28.0659 47 27.8001Z" fill="#868686"/>
<path d="M1 28H13C13.5523 28 14 27.5523 14 27V11C14 10.4477 13.5523 10 13 10H1C0.447715 10 0 10.4477 0 11V27C0 27.5523 0.447715 28 1 28ZM2 12H12V26H2V12Z" fill="#868686"/>
<path d="M9 14H7C6.44772 14 6 14.4477 6 15C6 15.5523 6.44772 16 7 16H9C9.55228 16 10 15.5523 10 15C10 14.4477 9.55228 14 9 14Z" fill="#868686"/>
<path d="M9 18H5C4.44772 18 4 18.4477 4 19C4 19.5523 4.44772 20 5 20H9C9.55228 20 10 19.5523 10 19C10 18.4477 9.55228 18 9 18Z" fill="#868686"/>
<path d="M9 22H5C4.44772 22 4 22.4477 4 23C4 23.5523 4.44772 24 5 24H9C9.55228 24 10 23.5523 10 23C10 22.4477 9.55228 22 9 22Z" fill="#868686"/>
<path d="M34.12 27.7C33.9414 27.3892 33.6105 27.1973 33.252 27.1966C32.8935 27.1958 32.5619 27.3864 32.382 27.6966C32.2021 28.0067 32.2014 28.3892 32.38 28.7L36.79 36.33L20.79 42.33C20.79 42.33 20.79 42.33 20.72 42.33H20.64L18.04 43.83L16.31 44.83C15.85 45.0959 15.3031 45.1679 14.79 45.03C14.2796 44.8921 13.8446 44.5577 13.58 44.1L11.58 40.64C11.0915 39.7002 11.4204 38.5426 12.33 38L15.79 36L18.29 40.33C18.4693 40.6406 18.8013 40.8314 19.16 40.83C19.518 40.8314 19.8494 40.6414 20.029 40.3317C20.2086 40.0221 20.209 39.64 20.03 39.33L17.45 34.87L30 24.52L30.41 25.23C30.6861 25.7105 31.2995 25.8761 31.78 25.6C32.2605 25.3239 32.4261 24.7105 32.15 24.23L31.15 22.5C31.0017 22.2464 30.7493 22.0709 30.46 22.02C30.1691 21.9652 29.8688 22.0421 29.64 22.23L15.64 33.77L11.38 36.23C9.80777 37.1458 9.05166 39.0073 9.54001 40.76L8.54001 41.33C7.48627 41.9351 6.90162 43.1161 7.05935 44.321C7.21707 45.5258 8.08601 46.5165 9.26001 46.83C9.51449 46.8974 9.77674 46.931 10.04 46.93C10.5661 46.9278 11.0827 46.7901 11.54 46.53L12.54 45.96C13.0204 46.4562 13.6245 46.8153 14.29 47C14.6317 47.0956 14.9852 47.1427 15.34 47.14C16.0429 47.1416 16.7334 46.9552 17.34 46.6L18.21 46.1L20.21 49.57C21.0375 51.0007 22.8664 51.4926 24.3 50.67C24.9899 50.2725 25.4935 49.617 25.6998 48.848C25.9061 48.079 25.7983 47.2595 25.4 46.57L23.58 43.4L38.58 37.77C38.8553 37.6665 39.0712 37.447 39.17 37.17C39.2685 36.8963 39.2429 36.5933 39.1 36.34L34.12 27.7ZM10.5 44.79C10.27 44.923 9.99656 44.9589 9.74001 44.89C9.4838 44.8234 9.26444 44.658 9.13001 44.43C8.99704 44.2 8.96106 43.9266 9.03001 43.67C9.09896 43.4121 9.26819 43.1924 9.50001 43.06L10.37 42.56L11.37 44.29L10.5 44.79ZM23.66 47.59C23.793 47.82 23.8289 48.0934 23.76 48.35C23.6887 48.6042 23.5197 48.8199 23.29 48.95C22.8146 49.2231 22.208 49.0625 21.93 48.59L19.93 45.12L21.59 44.17H21.67L23.66 47.59Z" fill="#868686"/>
</g></symbol><symbol id="chat" viewBox="0 0 60 56"><g fill="none">
<path d="M10.0667 23H23.9333C24.5232 23 25 22.552 25 22C25 21.448 24.5232 21 23.9333 21H10.0667C9.4768 21 9 21.448 9 22C9 22.552 9.4768 23 10.0667 23Z" fill="#868686"/>
<path d="M36 26H10C9.447 26 9 26.448 9 27C9 27.552 9.447 28 10 28H36C36.553 28 37 27.552 37 27C37 26.448 36.553 26 36 26Z" fill="#868686"/>
<path d="M36 33H10C9.447 33 9 33.448 9 34C9 34.552 9.447 35 10 35H36C36.553 35 37 34.552 37 34C37 33.448 36.553 33 36 33Z" fill="#868686"/>
<path d="M54.072 0.0711808L19.93 0C16.66 0 14 2.70487 14 6.03003V11.2405L5.93 11.2578C2.66 11.2578 0 13.9626 0 17.2878V38.7854C0 42.1106 2.66 44.8144 5.93 44.8144H12V54.9831C12 55.4031 12.254 55.7804 12.64 55.9319C12.757 55.9776 12.879 56 13 56C13.276 56 13.547 55.8831 13.74 55.6675L23.444 44.8124L40.07 44.7433C43.34 44.7433 46 42.0384 46 38.7142V38.5993L51.26 44.4829C51.453 44.6985 51.724 44.8155 52 44.8155C52.121 44.8155 52.243 44.7931 52.36 44.7473C52.746 44.5958 53 44.2186 53 43.7986V33.6299H54.07C57.34 33.6299 60 30.925 60 27.6009V6.10121C60 2.77707 57.341 0.0721977 54.072 0.0711808ZM44 38.7132C44 40.9168 42.237 42.7085 40.066 42.7085L22.996 42.7797C22.716 42.7807 22.448 42.9017 22.26 43.1122L14 52.3525V43.7966C14 43.2352 13.553 42.7797 13 42.7797H5.93C3.763 42.7797 2 40.9869 2 38.7844V17.2868C2 15.0832 3.763 13.2905 5.932 13.2905L15 13.2712C15.001 13.2712 15.001 13.2712 15.002 13.2712L40.07 13.2183C42.237 13.2183 44 15.011 44 17.2146V35.9667V38.7132ZM58 27.5988C58 29.8024 56.237 31.5941 54.07 31.5941H52C51.447 31.5941 51 32.0497 51 32.611V41.1669L46 35.5742V17.2156C46 13.8904 43.34 11.1856 40.068 11.1856L16 11.2354V6.02902C16 3.82546 17.763 2.03272 19.928 2.03272L54.069 2.1039C54.07 2.1039 54.07 2.1039 54.071 2.1039C56.238 2.1039 58.001 3.89664 58.001 6.1002V27.5988H58Z" fill="#868686"/>
</g></symbol><symbol id="lecture" viewBox="0 0 61 61"><g fill="none">
<path d="M60.0161 29.5161H59.0323V23.4437C59.0323 21.3854 58.2314 19.4511 56.7762 17.998C55.3211 16.5428 53.3868 15.7419 51.3295 15.7419H50.1774V14.6774C52.5259 13.3137 54.1129 10.7773 54.1129 7.87097C54.1129 3.53111 50.5818 0 46.2419 0C41.9021 0 38.371 3.53111 38.371 7.87097C38.371 10.7763 39.958 13.3137 42.3064 14.6774V15.7419H41.1543C39.0971 15.7419 37.1628 16.5428 35.7076 17.998C34.2525 19.4521 33.4516 21.3854 33.4516 23.4437V29.5161H31.4839V26.5645C31.4839 26.0204 31.0431 25.5806 30.5 25.5806H27.5484V25.2432C27.5484 22.3742 28.5165 19.6558 30.2904 17.4529C30.6564 17.6152 31.0588 17.7097 31.4839 17.7097C33.1112 17.7097 34.4355 16.3854 34.4355 14.7581C34.4355 13.1307 33.1112 11.8065 31.4839 11.8065C29.8565 11.8065 28.5323 13.1307 28.5323 14.7581C28.5323 15.2382 28.6582 15.6839 28.8619 16.0853C26.7377 18.6601 25.5806 21.8626 25.5806 25.2432V25.5806H22.629C22.0859 25.5806 21.6452 26.0204 21.6452 26.5645V29.5161H20.6613C20.1182 29.5161 19.6774 29.9559 19.6774 30.5V34.4355C19.6774 34.9796 20.1182 35.4194 20.6613 35.4194H21.6452V41.3226C18.9326 41.3226 16.7258 43.5294 16.7258 46.2419C16.7258 47.703 17.3791 49.0027 18.3935 49.9049C16.8527 50.6074 15.5747 51.788 14.7581 53.2628C13.9415 51.789 12.6634 50.6084 11.1227 49.9049C12.137 49.0027 12.7903 47.703 12.7903 46.2419C12.7903 43.5294 10.5835 41.3226 7.87097 41.3226C5.15844 41.3226 2.95161 43.5294 2.95161 46.2419C2.95161 47.703 3.6049 49.0027 4.61927 49.9049C1.89887 51.1455 0 53.8846 0 57.0645V60.0161C0 60.5602 0.440774 61 0.983871 61H42.3064C42.8495 61 43.2903 60.5602 43.2903 60.0161V59.0323H58.0484C58.5915 59.0323 59.0323 58.5925 59.0323 58.0484V35.4194H60.0161C60.5592 35.4194 61 34.9796 61 34.4355V30.5C61 29.9559 60.5592 29.5161 60.0161 29.5161ZM31.4839 13.7742C32.026 13.7742 32.4677 14.215 32.4677 14.7581C32.4677 15.3012 32.026 15.7419 31.4839 15.7419C30.9418 15.7419 30.5 15.3012 30.5 14.7581C30.5 14.215 30.9418 13.7742 31.4839 13.7742ZM57.0645 23.4437V29.5161H55.0968V25.5806H53.129V29.5161H47.2258V22.2532L49.7376 23.5086C49.8754 23.5785 50.0269 23.6129 50.1774 23.6129C50.3053 23.6129 50.4332 23.5883 50.5542 23.5381C50.8179 23.4289 51.0206 23.2105 51.1111 22.9409L52.7906 17.9035C53.7626 18.1583 54.656 18.6601 55.386 19.3901C56.4683 20.4724 57.0645 21.9118 57.0645 23.4437ZM42.7984 17.7097L44.7474 20.3081L42.881 21.2418L41.7043 17.7097H42.7984ZM49.6855 17.7097H50.7805L49.6038 21.2418L47.7374 20.3081L49.6855 17.7097ZM46.2419 1.96774C49.1345 1.96774 51.543 4.06044 52.0448 6.81035C50.1814 6.57423 48.4566 5.74187 47.1077 4.39298L46.9395 4.22376C46.5705 3.85284 45.9153 3.85284 45.5463 4.22376L45.3791 4.392C44.0292 5.74187 42.3045 6.57423 40.441 6.80937C40.9408 4.06044 43.3494 1.96774 46.2419 1.96774ZM40.4125 8.80269C42.575 8.58821 44.5979 7.71355 46.2419 6.2771C47.886 7.71256 49.9078 8.58821 52.0714 8.80269C51.6237 11.6166 49.1798 13.7742 46.2419 13.7742C43.3041 13.7742 40.8602 11.6166 40.4125 8.80269ZM46.2419 15.7419C46.9228 15.7419 47.579 15.6465 48.2097 15.4832V16.3982L46.2419 19.0212L44.2742 16.3982V15.4832C44.9049 15.6465 45.5611 15.7419 46.2419 15.7419ZM35.4194 23.4437C35.4194 21.9118 36.0156 20.4714 37.0988 19.3891C37.8289 18.6601 38.7222 18.1573 39.6943 17.9025L41.3737 22.9399C41.4643 23.2095 41.6669 23.4279 41.9306 23.5371C42.0506 23.5883 42.1785 23.6129 42.3064 23.6129C42.457 23.6129 42.6085 23.5785 42.7462 23.5096L45.2581 22.2532V29.5161H39.3548V25.5806H37.3871V29.5161H35.4194V23.4437ZM23.6129 27.5484H29.5161V29.5161H23.6129V27.5484ZM18.6935 46.2419C18.6935 44.6146 20.0178 43.2903 21.6452 43.2903C23.2725 43.2903 24.5968 44.6146 24.5968 46.2419C24.5968 47.8693 23.2725 49.1936 21.6452 49.1936C20.0178 49.1936 18.6935 47.8693 18.6935 46.2419ZM4.91935 46.2419C4.91935 44.6146 6.24365 43.2903 7.87097 43.2903C9.49829 43.2903 10.8226 44.6146 10.8226 46.2419C10.8226 47.8693 9.49829 49.1936 7.87097 49.1936C6.24365 49.1936 4.91935 47.8693 4.91935 46.2419ZM1.96774 57.0645C1.96774 53.8089 4.61534 51.1613 7.87097 51.1613C11.1266 51.1613 13.7742 53.8089 13.7742 57.0645V59.0323H1.96774V57.0645ZM15.7419 57.0645C15.7419 53.8089 18.3895 51.1613 21.6452 51.1613C24.9008 51.1613 27.5484 53.8089 27.5484 57.0645V59.0323H15.7419V57.0645ZM41.3226 59.0323H29.5161V57.0645C29.5161 53.8089 32.1637 51.1613 35.4194 51.1613C38.675 51.1613 41.3226 53.8089 41.3226 57.0645V59.0323ZM32.4677 46.2419C32.4677 44.6146 33.792 43.2903 35.4194 43.2903C37.0467 43.2903 38.371 44.6146 38.371 46.2419C38.371 47.8693 37.0467 49.1936 35.4194 49.1936C33.792 49.1936 32.4677 47.8693 32.4677 46.2419ZM57.0645 57.0645H43.2903C43.2903 53.8846 41.3914 51.1455 38.671 49.9049C39.6854 49.0027 40.3387 47.703 40.3387 46.2419C40.3387 43.5294 38.1319 41.3226 35.4194 41.3226C32.7068 41.3226 30.5 43.5294 30.5 46.2419C30.5 47.703 31.1533 49.0027 32.1677 49.9049C30.6269 50.6074 29.3489 51.788 28.5323 53.2628C27.7156 51.789 26.4376 50.6084 24.8969 49.9049C25.9112 49.0027 26.5645 47.703 26.5645 46.2419C26.5645 44.2299 25.3475 42.5013 23.6129 41.7397V35.4194H57.0645V57.0645ZM59.0323 33.4516H21.6452V31.4839H59.0323V33.4516Z" fill="#868686"/>
<path d="M2.95161 19.6775H18.6935C20.3209 19.6775 21.6452 18.3532 21.6452 16.7258V15.1654L25.2924 11.5182C25.6771 11.1335 25.6771 10.5117 25.2924 10.127L21.6452 6.47981V4.91939C21.6452 3.29206 20.3209 1.96777 18.6935 1.96777H2.95161C1.32429 1.96777 0 3.29206 0 4.91939V16.7258C0 18.3532 1.32429 19.6775 2.95161 19.6775ZM1.96774 4.91939C1.96774 4.37629 2.4095 3.93552 2.95161 3.93552H18.6935C19.2357 3.93552 19.6774 4.37629 19.6774 4.91939V6.88713C19.6774 7.14884 19.7807 7.39874 19.9657 7.58273L23.2056 10.8226L19.9657 14.0625C19.7807 14.2465 19.6774 14.4964 19.6774 14.7581V16.7258C19.6774 17.2689 19.2357 17.7097 18.6935 17.7097H2.95161C2.4095 17.7097 1.96774 17.2689 1.96774 16.7258V4.91939Z" fill="#868686"/>
<path d="M3.93549 5.90332H17.7097V7.87106H3.93549V5.90332Z" fill="#868686"/>
<path d="M3.93549 13.7742H17.7097V15.7419H3.93549V13.7742Z" fill="#868686"/>
<path d="M5.9032 9.83862H15.7419V11.8064H5.9032V9.83862Z" fill="#868686"/>
</g></symbol><symbol id="onlineclass" viewBox="0 0 59 61"><g fill="none">
<path d="M54.9643 57.9423C54.9643 58.5052 54.5085 58.9615 53.9464 58.9615H43.7679V55.4758C43.7579 52.2619 41.6124 49.4476 38.5185 48.5911L32.5714 46.9711V45.4284C34.4779 44.0991 35.6175 41.9223 35.625 39.5962V37.6667C35.8844 37.5477 36.0484 37.4631 36.0798 37.4507C36.4252 37.278 36.6429 36.9247 36.6429 36.5385V30.4231L42.0974 28.3224C42.4916 28.1716 42.752 27.7929 42.752 27.3704C42.752 26.9478 42.4916 26.5696 42.0974 26.4183L28.8653 21.3222C28.6302 21.2326 28.3698 21.2326 28.1347 21.3222L14.9026 26.4183C14.5109 26.5691 14.252 26.9454 14.25 27.3654V32.0395L11.4946 34.7986L12.9339 36.2399L14.25 34.922V36.5385H16.2857V34.922L17.6018 36.2399L19.0411 34.7986L16.2857 32.0395V28.8494L20.3571 30.4231V36.5385C20.3552 36.9266 20.5733 37.2825 20.9202 37.4557C20.9516 37.4711 21.1156 37.5527 21.375 37.6717V39.5962C21.3571 41.9292 22.5022 44.118 24.4286 45.4314V46.9711L18.478 48.5921C15.3861 49.4491 13.2416 52.2629 13.2321 55.4758V58.9615H3.05357C2.49146 58.9615 2.03571 58.5052 2.03571 57.9423V18.1923H30.5357V16.1538H2.03571V11.0577C2.03571 10.4948 2.49146 10.0385 3.05357 10.0385H30.5357V8H3.05357C1.36725 8 0 9.36909 0 11.0577V57.9423C0 59.6309 1.36725 61 3.05357 61H53.9464C55.6328 61 57 59.6309 57 57.9423V20.2308H54.9643V57.9423ZM26.4643 47.75V46.4252C27.7908 46.8338 29.2092 46.8338 30.5357 46.4252V47.75C30.5392 48.0421 30.6684 48.3183 30.8911 48.5075L28.5 50.5021L26.1089 48.5084C26.3316 48.3193 26.4613 48.0426 26.4643 47.75ZM28.5 23.3606L38.8963 27.3654L28.5 31.3701L18.1037 27.3654L28.5 23.3606ZM28.1347 33.4136C28.3698 33.5032 28.6302 33.5032 28.8653 33.4136L34.6071 31.2019V35.89C32.6897 36.8137 30.6202 37.379 28.5 37.5577C26.3798 37.3775 24.3103 36.8122 22.3929 35.889V31.2009L28.1347 33.4136ZM23.4107 39.5962L23.4107 38.5023C25.0354 39.1448 26.755 39.5145 28.5 39.5962C30.245 39.5145 31.9646 39.1448 33.5893 38.5023V39.5962C33.5868 41.4171 32.6142 43.0988 31.0377 44.007C29.4612 44.9153 27.5204 44.9118 25.9474 43.9981C25.5632 43.7796 25.2113 43.5088 24.9007 43.1938C23.9415 42.2443 23.4043 40.9473 23.4107 39.5962ZM15.2679 55.4758C15.2753 53.1806 16.8076 51.1705 19.0167 50.5579L23.8178 49.2505L27.8484 52.6137C28.2262 52.9288 28.7738 52.9288 29.1516 52.6137L33.1822 49.2505L37.9803 50.5569C40.1904 51.169 41.7237 53.1796 41.7321 55.4758V58.9615H38.6786V54.8846H36.6429V58.9615H20.3571V54.8846H18.3214V58.9615H15.2679V55.4758Z" fill="#868686"/>
<path d="M6 13H8V15H6V13Z" fill="#868686"/>
<path d="M11 13H13V15H11V13Z" fill="#868686"/>
<path d="M15 13H17V15H15V13Z" fill="#868686"/>
<path d="M56 0H36C34.3433 0 33 1.34326 33 3V15C33 16.6567 34.3433 18 36 18H39V22C39 22.4248 39.2681 22.8032 39.6689 22.9438C39.7754 22.9805 39.8872 22.9995 40 23C40.3037 23 40.5913 22.8623 40.7808 22.625L44.48 18H56C57.6567 18 59 16.6567 59 15V3C59 1.34326 57.6567 0 56 0ZM57 15C57 15.5522 56.5522 16 56 16H44C43.6963 16 43.4087 16.1377 43.2192 16.375L41 19.1489V17C41 16.4478 40.5522 16 40 16H36C35.4478 16 35 15.5522 35 15V3C35 2.44775 35.4478 2 36 2H56C56.5522 2 57 2.44775 57 3V15Z" fill="#868686"/>
<path d="M39 4H54V6H39V4Z" fill="#868686"/>
<path d="M39 8H54V10H39V8Z" fill="#868686"/>
<path d="M39 13H54V15H39V13Z" fill="#868686"/>
</g></symbol></svg>